<svg xmlns="http://www.w3.org/2000/svg" width="512" height="512" viewBox="0 0 512 512" version="1.1"><path d="M 117.594 210.057 L 112.689 210.879 106.489 213.931 L 100.290 216.983 95.575 222.023 L 90.860 227.064 88.423 232.388 L 85.985 237.712 84.890 243.606 L 83.795 249.500 84.415 254.825 L 85.035 260.150 86.913 265.493 L 88.791 270.836 91.949 275.426 L 95.107 280.016 100.304 283.924 L 105.500 287.832 111.982 290.005 L 118.463 292.177 127.482 291.776 L 136.500 291.374 142.147 289.154 L 147.794 286.933 152.397 282.882 L 157 278.830 157 277.384 L 157 275.937 155.517 275.368 L 154.035 274.799 149.415 278.866 L 144.794 282.933 139.147 285.110 L 133.500 287.287 125.347 287.344 L 117.194 287.400 109.651 283.672 L 102.108 279.944 98.430 275.722 L 94.751 271.500 91.940 265.500 L 89.128 259.500 88.464 254.839 L 87.800 250.178 89.773 249.122 L 91.746 248.066 92.921 243.398 L 94.096 238.731 96.090 234.824 L 98.083 230.917 102.007 226.993 L 105.932 223.068 111.216 220.323 L 116.500 217.577 129 217.254 L 141.500 216.931 143.750 216.447 L 146 215.962 146 213.516 L 146 211.070 144.066 210.035 L 142.131 209 132.316 209.118 L 122.500 209.235 117.594 210.057 M 380.500 288.529 L 376.500 289.970 376.250 289.985 L 376 290 376 291.456 L 376 292.911 380.126 291.456 L 384.251 290 385.194 290 L 386.136 290 384.013 292.982 L 381.890 295.963 380.695 295.732 L 379.500 295.500 379.792 297.241 L 380.084 298.983 377.542 302.724 L 375 306.464 375 307.732 L 375 309 376.041 309 L 377.083 309 380.191 304 L 383.299 299 387.115 299 L 390.930 299 394.465 295.896 L 398 292.793 398 291.453 L 398 290.113 395.777 288.557 L 393.555 287 389.027 287.044 L 384.500 287.088 380.500 288.529 M 386.943 292.750 L 385.564 295.500 385.199 296.250 L 384.833 297 386.782 297 L 388.730 297 391.491 294.829 L 394.251 292.657 392.435 291.329 L 390.618 290 389.469 290 L 388.321 290 386.943 292.750 M 444.667 290.667 L 444 291.333 444 293.274 L 444 295.214 445.582 294.607 L 447.164 294 447.582 294 L 448 294 448 292 L 448 290 446.667 290 L 445.333 290 444.667 290.667 M 396.299 299.624 L 393.097 301.203 391.473 303.682 L 389.848 306.162 390.393 307.581 L 390.937 309 392.746 309 L 394.555 309 396.820 307.413 L 399.086 305.826 400.530 307.025 L 401.974 308.223 404.562 307.574 L 407.149 306.924 410.555 308.156 L 413.962 309.388 419.066 308.080 L 424.171 306.771 425.286 307.886 L 426.400 309 429.051 309 L 431.702 309 434.927 307.876 L 438.152 306.752 439.276 307.876 L 440.400 309 441.950 308.994 L 443.500 308.988 446.199 307.580 L 448.898 306.172 450.071 307.586 L 451.245 309 453.122 309 L 455 309 456.750 307.250 L 458.500 305.500 461 305.846 L 463.500 306.192 464.319 307.631 L 465.138 309.069 469.953 305.535 L 474.768 302 475.776 302 L 476.783 302 477.383 304.390 L 477.983 306.779 479.586 307.395 L 481.189 308.010 485.595 306.061 L 490 304.112 490 302.949 L 490 301.786 488.250 302.534 L 486.500 303.283 483.849 303.740 L 481.198 304.198 480.560 302.189 L 479.923 300.181 478.490 298.991 L 477.056 297.802 473.528 299.982 L 470 302.163 470.607 300.581 L 471.214 299 469.895 299 L 468.575 299 466.461 301.652 L 464.346 304.304 461.793 303.663 L 459.239 303.022 458.713 301.011 L 458.187 299 455.585 299 L 452.982 299 449.874 301.970 L 446.767 304.939 444.808 305.561 L 442.849 306.183 442.212 305.546 L 441.576 304.909 442.870 302.837 L 444.164 300.764 443.124 299.724 L 442.085 298.685 440.542 299.965 L 439 301.245 439 302.525 L 439 303.804 435.816 304.914 L 432.633 306.024 431.832 304.762 L 431.031 303.500 431.015 300.750 L 431 298 430.140 298 L 429.280 298 425.699 301.377 L 422.119 304.753 419.442 305.425 L 416.764 306.097 416.357 305.690 L 415.950 305.283 415.813 301.642 L 415.676 298 414.388 298 L 413.099 298 412.300 299.286 L 411.500 300.572 408.615 302.786 L 405.730 305 403.846 305 L 401.961 305 402.452 302.291 L 402.943 299.583 401.722 298.807 L 400.500 298.031 400 298.038 L 399.500 298.046 396.299 299.624 M 395.924 303.636 L 393.500 306.271 395.582 305.190 L 397.664 304.109 398.955 302.555 L 400.245 301 399.297 301 L 398.349 301 395.924 303.636 M 452.651 303.468 L 452.087 304.936 453.044 305.527 L 454 306.118 455 305.500 L 456 304.882 456 303.441 L 456 302 454.607 302 L 453.214 302 452.651 303.468 M 411.143 303.907 L 409.786 304.750 410.960 305.475 L 412.133 306.200 412.671 305.663 L 413.208 305.125 412.854 304.095 L 412.500 303.064 411.143 303.907 M 426.667 303.667 L 426 304.333 426 305.167 L 426 306 427.500 306 L 429 306 429 304.500 L 429 303 428.167 303 L 427.333 303 426.667 303.667" stroke="none" fill="#94643c" fill-rule="evenodd"/><path d="M 112.645 196.584 L 106.790 198.001 99.914 201.615 L 93.038 205.228 86.046 212.588 L 79.055 219.948 76.017 225.967 L 72.978 231.986 71.489 237.703 L 70 243.420 70 250.074 L 70 256.727 70.999 262.114 L 71.998 267.500 75.576 274.796 L 79.155 282.092 84.977 288.296 L 90.799 294.500 96.592 297.989 L 102.384 301.477 108.942 303.713 L 115.500 305.948 125.068 305.974 L 134.637 306 140.068 304.388 L 145.500 302.775 151.376 299.809 L 157.253 296.843 162.126 292.285 L 167 287.726 167 286.832 L 167 285.937 165.543 285.378 L 164.087 284.819 158.356 289.488 L 152.624 294.157 147.831 296.585 L 143.038 299.014 136.769 300.492 L 130.500 301.970 125 301.928 L 119.500 301.885 112.919 300.167 L 106.338 298.449 100.553 294.974 L 94.769 291.500 89.634 286.470 L 84.500 281.439 81.345 275.470 L 78.191 269.500 76.595 264.068 L 75 258.637 75 253.925 L 75 249.214 76.353 248.695 L 77.705 248.176 78.944 241.878 L 80.183 235.580 83.202 229.600 L 86.220 223.620 91.649 217.929 L 97.079 212.237 102.789 209.216 L 108.500 206.194 112.500 204.987 L 116.500 203.779 131 203.139 L 145.500 202.500 145.827 200.195 L 146.154 197.890 144.954 196.445 L 143.755 195 131.128 195.083 L 118.500 195.167 112.645 196.584 M 172.424 218.002 L 167.349 220.010 163.235 223.531 L 159.122 227.052 156.311 232.776 L 153.500 238.500 153.521 246 L 153.541 253.500 155.658 258.122 L 157.775 262.745 161.477 266.843 L 165.179 270.940 170.838 273.709 L 176.498 276.478 185.999 276.431 L 195.500 276.383 200.727 274.078 L 205.954 271.773 210.066 267.312 L 214.178 262.851 216.318 258.176 L 218.459 253.500 218.459 246 L 218.459 238.500 216.374 233.949 L 214.289 229.398 210.984 225.635 L 207.680 221.872 202.590 219.242 L 197.500 216.612 187.500 216.303 L 177.500 215.993 172.424 218.002 M 226.076 217.408 L 224.907 218.817 225.204 245.998 L 225.500 273.179 227.861 275.090 L 230.222 277 232 277 L 233.778 277 236.139 275.090 L 238.500 273.180 238.804 251.090 L 239.108 229 252.554 229 L 266 229 268 227 L 270 225 270 222.057 L 270 219.113 267.777 217.557 L 265.555 216 246.400 216 L 227.245 216 226.076 217.408 M 277.550 218.359 L 275 220.909 275 246.344 L 275 271.778 276.844 274.056 L 278.688 276.333 281.892 276.333 L 285.095 276.333 286.798 274.633 L 288.500 272.932 288.796 247.134 L 289.093 221.336 287.296 219.211 L 285.500 217.085 282.800 216.447 L 280.101 215.808 277.550 218.359 M 316.792 217.402 L 312.085 218.669 307.955 221.531 L 303.826 224.393 301.093 228.446 L 298.360 232.500 296.930 236 L 295.500 239.500 295.549 246.500 L 295.598 253.500 298.169 259.086 L 300.740 264.673 304.530 268.464 L 308.321 272.255 312.911 274.309 L 317.500 276.363 322.712 276.432 L 327.925 276.500 329.629 274.798 L 331.333 273.095 331.333 269.892 L 331.333 266.688 329.056 264.844 L 326.778 263 323.639 262.984 L 320.500 262.967 316.520 260.713 L 312.541 258.459 310.229 254.480 L 307.916 250.500 308.294 245.209 L 308.671 239.917 310.648 237.270 L 312.624 234.624 315.380 232.562 L 318.136 230.500 333.658 230 L 349.181 229.500 351.090 227.139 L 353 224.778 353 222.428 L 353 220.078 350.811 218.039 L 348.623 216 335.061 216.067 L 321.500 216.135 316.792 217.402 M 361.282 216.788 L 360.065 217.578 347.498 244.039 L 334.931 270.500 335.215 272.400 L 335.500 274.299 338.221 276.323 L 340.942 278.347 343.479 277.192 L 346.015 276.036 347.693 272.518 L 349.370 269 359.629 269 L 369.887 269 371.443 266.777 L 373 264.555 373 262.277 L 373 260 371 258 L 369 256 362.500 256 L 356 256 356.021 255.250 L 356.041 254.500 362.006 242.018 L 367.971 229.536 369.735 228.839 L 371.500 228.141 372.750 228.070 L 374 228 374 250.045 L 374 272.091 376.455 274.545 L 378.909 277 380.844 277 L 382.778 277 384.915 275.250 L 387.051 273.500 386.776 245 L 386.500 216.500 374.500 216.249 L 362.500 215.997 361.282 216.788 M 396.923 218.923 L 394 221.846 394 246.500 L 394 271.154 397.019 274.172 L 400.037 277.191 413.769 276.820 L 427.500 276.448 431.655 274.252 L 435.811 272.056 437.902 269.397 L 439.993 266.739 440.976 263.088 L 441.959 259.437 440.869 255.468 L 439.779 251.500 435.869 247.771 L 431.960 244.042 434.037 242.771 L 436.114 241.500 438.178 238.186 L 440.242 234.872 439.750 229.748 L 439.257 224.624 435.723 221.385 L 432.189 218.146 428.344 217.079 L 424.500 216.011 412.173 216.006 L 399.846 216 396.923 218.923 M 116.718 225.422 L 112.935 226.787 109.698 229.005 L 106.460 231.223 103.885 234.862 L 101.310 238.500 100.155 241.899 L 99 245.298 99 251.453 L 99 257.607 101.588 262.801 L 104.177 267.995 108.295 271.520 L 112.413 275.045 117.388 276.523 L 122.363 278 126.144 278 L 129.925 278 135.264 276.002 L 140.603 274.005 143.914 270.589 L 147.225 267.173 146.553 266.086 L 145.882 265 144.323 265 L 142.764 265 139.409 267.945 L 136.055 270.891 132.277 271.940 L 128.500 272.989 124.929 272.994 L 121.359 273 115.936 270.250 L 110.512 267.500 107.616 263.320 L 104.720 259.141 104.233 254.070 L 103.746 249 104.826 249 L 105.906 249 107.991 244.287 L 110.076 239.573 111.788 237.645 L 113.500 235.718 117.500 233.881 L 121.500 232.044 132.628 232.022 L 143.755 232 144.954 230.555 L 146.154 229.110 145.827 226.805 L 145.500 224.500 133 224.279 L 120.500 224.058 116.718 225.422 M 408 245.500 L 408 265 415.050 265 L 422.099 265 425.035 263.482 L 427.971 261.964 428.576 259.554 L 429.181 257.144 428.519 255.061 L 427.858 252.978 424.979 251.489 L 422.099 250 416.997 250 L 411.895 250 412.198 244.750 L 412.500 239.500 418 238.918 L 423.500 238.336 425.212 237.575 L 426.924 236.815 427.529 234.908 L 428.135 233 427.471 230.909 L 426.807 228.817 423.436 227.409 L 420.064 226 414.032 226 L 408 226 408 245.500 M 176.382 230.497 L 171.372 232.994 169.315 236.747 L 167.258 240.500 166.600 243.287 L 165.943 246.075 167.075 250.278 L 168.207 254.482 170.188 257.263 L 172.168 260.045 176.044 262.023 L 179.920 264 186.059 264 L 192.198 264 195.655 262.359 L 199.113 260.719 201.615 257.438 L 204.118 254.157 205.134 250.476 L 206.150 246.796 204.992 241.965 L 203.833 237.135 200.413 233.613 L 196.993 230.092 193.247 229.052 L 189.500 228.011 185.446 228.006 L 181.393 228 176.382 230.497 M 245.223 240.557 L 243 242.113 243 245.500 L 243 248.887 245.223 250.443 L 247.445 252 255.223 252 L 263 252 265 250 L 267 248 267 245.500 L 267 243 265 241 L 263 239 255.223 239 L 247.445 239 245.223 240.557 M 323.701 290.632 L 323 291.333 323 293.167 L 323 295 320.071 295 L 317.143 295 315.571 296.571 L 314 298.143 314 299.217 L 314 300.292 311.548 297.646 L 309.095 295 306.048 295 L 303 295 301 297 L 299 299 299 301.811 L 299 304.623 301.039 306.811 L 303.078 309 305.848 309 L 308.618 309 310.462 307.652 L 312.306 306.303 311.531 305.051 L 310.757 303.799 307.917 304.367 L 305.078 304.934 304.480 303.967 L 303.882 303 308.941 303 L 314 303 314 304.345 L 314 305.690 315.786 307.306 L 317.571 308.922 322.536 308.709 L 327.500 308.496 327.500 299.512 L 327.500 290.527 325.951 290.229 L 324.402 289.931 323.701 290.632 M 335.626 291.533 L 335 293.164 335.015 299.832 L 335.031 306.500 335.765 307.595 L 336.500 308.690 340.460 308.822 L 344.420 308.955 346.710 307.454 L 349 305.954 349 302.132 L 349 298.310 347.171 296.655 L 345.343 295 342.741 295 L 340.139 295 339.820 292.760 L 339.500 290.520 337.876 290.211 L 336.252 289.902 335.626 291.533 M 232.211 299.750 L 232.500 308.500 234.500 308.500 L 236.500 308.500 236.810 304.750 L 237.121 301 238.860 301 L 240.600 301 241.800 299.800 L 243 298.600 243 296 L 243 293.400 241.800 292.200 L 240.600 291 236.261 291 L 231.922 291 232.211 299.750 M 246 297 L 244 299 244 301.826 L 244 304.651 246.314 306.826 L 248.629 309 251.275 309 L 253.922 309 255.961 306.811 L 258 304.623 258 302 L 258 299.377 255.961 297.189 L 253.922 295 250.961 295 L 248 295 246 297 M 258.059 295.750 L 258.119 296.500 260.309 302.425 L 262.500 308.349 263.686 308.736 L 264.871 309.124 266.247 306.499 L 267.622 303.874 268.789 306.437 L 269.957 309 270.856 309 L 271.755 309 272.736 307.750 L 273.717 306.500 275.358 301.572 L 277 296.644 277 295.822 L 277 295 274.968 295 L 272.936 295 272.117 297.213 L 271.298 299.426 270.114 297.213 L 268.930 295 267.618 295 L 266.306 295 265.311 297.229 L 264.316 299.459 263.123 297.229 L 261.930 295 259.965 295 L 258 295 258.059 295.750 M 279.223 296.557 L 277 298.113 277 301.557 L 277 305 279 307 L 281 309 283.809 309 L 286.618 309 288.462 307.652 L 290.306 306.303 289.531 305.051 L 288.757 303.799 285.917 304.367 L 283.078 304.934 282.480 303.967 L 281.882 303 286.375 303 L 290.867 303 291.184 305.750 L 291.500 308.500 293.500 308.500 L 295.500 308.500 295.820 304.001 L 296.139 299.502 297.570 298.701 L 299 297.901 299 296.450 L 299 295 295.406 295 L 291.813 295 291.314 296.908 L 290.815 298.815 288.908 296.908 L 287 295 284.223 295 L 281.445 295 279.223 296.557 M 349.283 296.250 L 349.781 297.500 351.556 301.892 L 353.331 306.285 352.274 309.084 L 351.217 311.884 351.775 312.442 L 352.333 313 354.072 313 L 355.811 313 358.925 306.346 L 362.039 299.691 362.628 297.346 L 363.217 295 361.022 295 L 358.826 295 357.716 297.941 L 356.606 300.882 354.818 297.941 L 353.029 295 350.908 295 L 348.786 295 349.283 296.250 M 249 301.441 L 249 303.882 250.096 304.559 L 251.192 305.237 252.733 303.696 L 254.273 302.155 253.668 300.578 L 253.063 299 251.031 299 L 249 299 249 301.441 M 318.332 300.578 L 317.727 302.155 319.199 303.628 L 320.672 305.100 321.948 303.563 L 323.224 302.025 322.643 300.513 L 322.063 299 320.500 299 L 318.937 299 318.332 300.578 M 340.701 299.632 L 340 300.333 340 302.108 L 340 303.882 340.910 304.444 L 341.820 305.006 343.463 304.376 L 345.106 303.745 344.803 301.633 L 344.500 299.520 342.951 299.226 L 341.402 298.931 340.701 299.632" stroke="none" fill="#24346c" fill-rule="evenodd"/></svg>